<svg width="30" height="30" viewBox="0 0 30 30" fill="none" xmlns="http://www.w3.org/2000/svg">
<path fill-rule="evenodd" clip-rule="evenodd" d="M18.8308 4.8942C17.7267 4.16887 16.4079 3.75 15 3.75C11.4419 3.75 8.45277 6.4254 8.05984 9.96177L7.74508 12.7945C7.69311 13.2623 7.66712 13.4962 7.62798 13.7258C7.48726 14.5511 7.21784 15.3493 6.82957 16.0911C6.72156 16.2975 6.60049 16.4992 6.35835 16.9028L5.56743 18.221C4.76167 19.5639 4.35879 20.2354 4.64602 20.7427C4.93325 21.25 5.71631 21.25 7.28241 21.25H22.7177C24.2838 21.25 25.0668 21.25 25.354 20.7427C25.6413 20.2354 25.2384 19.5639 24.4326 18.221L23.6417 16.9028L23.6416 16.9027C23.3995 16.4992 23.2785 16.2974 23.1705 16.0911C22.7822 15.3493 22.5128 14.5511 22.3721 13.7258C22.3329 13.4962 22.307 13.2623 22.255 12.7946L22.255 12.7945L22.1653 11.9877C19.8364 11.8165 18 9.8727 18 7.5C18 6.52883 18.3077 5.62952 18.8308 4.8942ZM20.3426 6.23604C21.2011 7.25477 21.7756 8.52668 21.9374 9.93643C20.8276 9.68118 20 8.68724 20 7.5C20 7.03887 20.1249 6.60689 20.3426 6.23604Z" fill="#111111"/>
<path d="M11.25 21.25C11.25 21.7425 11.347 22.2301 11.5355 22.6851C11.7239 23.14 12.0001 23.5534 12.3483 23.9017C12.6966 24.2499 13.11 24.5261 13.5649 24.7145C14.0199 24.903 14.5075 25 15 25C15.4925 25 15.9801 24.903 16.4351 24.7145C16.89 24.5261 17.3034 24.2499 17.6517 23.9017C17.9999 23.5534 18.2761 23.14 18.4645 22.6851C18.653 22.2301 18.75 21.7425 18.75 21.25L15 21.25H11.25Z" fill="#111111"/>
<circle cx="22.5" cy="7.5" r="2.75" fill="#111111" stroke="#111111" stroke-width="0.5"/>
</svg>
